<?xml version="1.0" encoding="UTF-8"?><svg id="Layer_1" xmlns="http://www.w3.org/2000/svg" viewBox="0 0 488.8 125.53"><defs><style>.cls-1{fill:#001e61;}.cls-2{fill:#7ba4dd;}</style></defs><g><path class="cls-1" d="m471.64,19.62c0-4.68,3.1-6.61,6.72-6.61s6.64,1.92,6.64,6.61-3.07,6.52-6.69,6.52-6.66-1.84-6.66-6.52Zm11.58,0c0-4.02-2.24-5.11-4.89-5.11s-4.97,1.09-4.97,5.11,2.24,5.03,4.91,5.03,4.94-1.04,4.94-5.03Zm-8.01-3.33h3.62c1.95,0,2.81.75,2.81,2.13,0,1.03-.55,1.58-1.35,1.87.29.14.55.35.72.72l.84,1.67h-2.33l-.78-1.67c-.2-.37-.4-.49-.75-.49h-.55v2.15h-2.24v-6.38Zm3.24,2.93c.66,0,1.01-.17,1.01-.75s-.29-.78-.92-.78h-1.09v1.52h1.01Z"/><path class="cls-1" d="m163.8,64.61h28.84c3.84,0,6.75-1.66,6.75-5.91,0-4.46-2.49-6.23-6.43-6.23h-11.41c-13.28,0-19.61-7.47-19.61-18.68s6.75-19.09,20.34-19.09h32.58v13.9h-27.39c-4.15,0-6.75,1.45-6.75,5.91,0,4.15,2.28,5.91,6.43,5.91h11.83c13.07,0,19.4,7.06,19.4,18.99s-6.74,19.09-19.92,19.09h-34.65v-13.9Z"/><path class="cls-1" d="m227.82,14.7h19.82v63.81h-19.82V14.7Z"/><path class="cls-1" d="m257.81,46.55c0-20.86,11.83-31.85,33.83-31.85h25.94v13.8h-24.28c-11.83,0-15.56,5.71-15.56,18.05s3.22,18.68,14.53,18.68h11.1v-11.62h-12.14v-11.62h30.51v36.53h-32.48c-20.23,0-31.44-11.1-31.44-31.96Z"/><path class="cls-1" d="m333.73,14.7h25.21l10.9,34.86c1.45,4.67,3.01,11.52,3.01,11.52,0,0,1.45-6.85,3.01-11.52l11-34.86h25.11v63.81h-18.68v-28.43c0-5.81.42-14.42.42-14.42,0,0-2.28,8.4-4.05,14.11l-9.54,28.74h-15.57l-9.54-28.74c-1.87-5.81-4.05-14.11-4.05-14.11,0,0,.31,7.89.31,14.42v28.43h-17.54V14.7Z"/><path class="cls-1" d="m436.3,78.51h-19.09l24.07-63.81h23.86l23.66,63.81h-20.86l-4.15-12.45h-23.35l-4.15,12.45Zm19.3-37.46c-1.66-4.98-3.32-11.72-3.32-11.72,0,0-1.66,6.74-3.42,11.72l-4.25,12.56h15.15l-4.15-12.56Z"/><g><path class="cls-1" d="m163.93,92.11c0-.3.24-.56.56-.56h11.85c.33,0,.56.27.56.56v1.66c0,.29-.24.56-.56.56h-9.36v6.04h7.91c.3,0,.56.27.56.56v1.66c0,.33-.27.56-.56.56h-7.91v6.37h9.36c.33,0,.56.27.56.56v1.63c0,.3-.24.56-.56.56h-11.85c-.33,0-.56-.27-.56-.56v-19.61Z"/><path class="cls-1" d="m179.01,91.79c0-.29.27-.53.56-.53h.74l12.86,14.87h.03v-14.01c0-.3.24-.56.56-.56h1.9c.3,0,.56.27.56.56v19.94c0,.3-.27.53-.56.53h-.77l-12.86-15.29h-.03v14.43c0,.3-.24.56-.56.56h-1.87c-.3,0-.56-.27-.56-.56v-19.94Z"/><path class="cls-1" d="m208.75,91.25c2.84,0,5.18,1.04,7.2,2.76.24.24.27.59.03.83-.44.47-.89.92-1.33,1.39-.24.27-.47.24-.77-.03-1.39-1.21-3.23-2.01-5.04-2.01-4.21,0-7.44,3.56-7.44,7.7s3.23,7.68,7.44,7.68c2.46,0,4.15-.89,4.44-1.01v-3.32h-2.9c-.33,0-.56-.24-.56-.53v-1.72c0-.33.24-.56.56-.56h5.39c.3,0,.53.27.53.56,0,2.37.03,4.8.03,7.17,0,.15-.12.39-.24.47,0,0-3.05,1.96-7.35,1.96-5.9,0-10.67-4.71-10.67-10.64s4.77-10.69,10.67-10.69Z"/><path class="cls-1" d="m220.39,92.11c0-.3.27-.56.56-.56h1.96c.3,0,.56.27.56.56v19.61c0,.3-.27.56-.56.56h-1.96c-.3,0-.56-.27-.56-.56v-19.61Z"/><path class="cls-1" d="m228.03,91.79c0-.29.27-.53.56-.53h.74l12.86,14.87h.03v-14.01c0-.3.24-.56.56-.56h1.9c.3,0,.56.27.56.56v19.94c0,.3-.27.53-.56.53h-.77l-12.86-15.29h-.03v14.43c0,.3-.24.56-.56.56h-1.87c-.3,0-.56-.27-.56-.56v-19.94Z"/><path class="cls-1" d="m249.2,92.11c0-.3.24-.56.56-.56h11.85c.33,0,.56.27.56.56v1.66c0,.29-.24.56-.56.56h-9.36v6.04h7.91c.3,0,.56.27.56.56v1.66c0,.33-.27.56-.56.56h-7.91v6.37h9.36c.33,0,.56.27.56.56v1.63c0,.3-.24.56-.56.56h-11.85c-.33,0-.56-.27-.56-.56v-19.61Z"/><path class="cls-1" d="m265.46,92.11c0-.3.24-.56.56-.56h11.85c.33,0,.56.27.56.56v1.66c0,.29-.24.56-.56.56h-9.36v6.04h7.91c.3,0,.56.27.56.56v1.66c0,.33-.27.56-.56.56h-7.91v6.37h9.36c.33,0,.56.27.56.56v1.63c0,.3-.24.56-.56.56h-11.85c-.33,0-.56-.27-.56-.56v-19.61Z"/><path class="cls-1" d="m281.13,92.11c0-.3.24-.56.56-.56h8.06c3.56,0,6.46,2.81,6.46,6.34,0,2.72-1.81,4.98-4.38,6.01l4.06,7.53c.21.39,0,.86-.5.86h-2.31c-.24,0-.42-.15-.47-.27l-3.94-7.85h-4.47v7.56c0,.3-.27.56-.56.56h-1.93c-.33,0-.56-.27-.56-.56v-19.61Zm8.38,9.51c1.93,0,3.61-1.63,3.61-3.67,0-1.93-1.69-3.52-3.61-3.52h-5.27v7.2h5.27Z"/><path class="cls-1" d="m298.46,92.11c0-.3.24-.56.56-.56h11.85c.33,0,.56.27.56.56v1.66c0,.29-.24.56-.56.56h-9.36v6.04h7.91c.3,0,.56.27.56.56v1.66c0,.33-.27.56-.56.56h-7.91v6.37h9.36c.33,0,.56.27.56.56v1.63c0,.3-.24.56-.56.56h-11.85c-.33,0-.56-.27-.56-.56v-19.61Z"/><path class="cls-1" d="m314.13,92.11c0-.3.24-.56.53-.56h6.81c5.72,0,10.4,4.65,10.4,10.34s-4.68,10.4-10.4,10.4h-6.81c-.3,0-.53-.27-.53-.56v-19.61Zm6.93,17.36c4.36,0,7.53-3.2,7.53-7.58s-3.17-7.53-7.53-7.53h-3.91v15.11h3.91Z"/><path class="cls-1" d="m340.13,109.3c.27-.39.5-.83.77-1.21.27-.39.68-.5,1.01-.24.18.15,2.46,2.04,4.74,2.04,2.04,0,3.35-1.24,3.35-2.76,0-1.78-1.54-2.9-4.47-4.12-3.02-1.28-5.39-2.84-5.39-6.28,0-2.31,1.78-5.48,6.49-5.48,2.96,0,5.18,1.54,5.48,1.75.24.15.47.56.18,1.01-.24.35-.5.77-.74,1.13-.24.39-.62.56-1.04.3-.21-.12-2.28-1.48-4-1.48-2.49,0-3.35,1.57-3.35,2.67,0,1.69,1.3,2.72,3.76,3.73,3.44,1.39,6.37,3.02,6.37,6.64,0,3.08-2.76,5.6-6.61,5.6-3.62,0-5.9-1.9-6.37-2.34-.27-.24-.47-.45-.18-.95Z"/><path class="cls-1" d="m365.31,91.25c5.93,0,10.67,4.77,10.67,10.69s-4.74,10.64-10.67,10.64-10.64-4.71-10.64-10.64,4.71-10.69,10.64-10.69Zm0,18.37c4.24,0,7.7-3.44,7.7-7.67s-3.47-7.73-7.7-7.73-7.67,3.53-7.67,7.73,3.47,7.67,7.67,7.67Z"/><path class="cls-1" d="m377.83,92.11c0-.3.24-.56.56-.56h1.96c.3,0,.56.27.56.56v17.42h8.03c.33,0,.56.27.56.56v1.63c0,.3-.24.56-.56.56h-10.55c-.33,0-.56-.27-.56-.56v-19.61Z"/><path class="cls-1" d="m390.33,92.11c0-.3.27-.56.56-.56h1.98c.33,0,.56.27.56.56v12.24c0,2.96,1.9,5.27,4.92,5.27s4.98-2.28,4.98-5.21v-12.29c0-.3.24-.56.56-.56h1.98c.3,0,.56.27.56.56v12.44c0,4.5-3.41,8.03-8.09,8.03s-8.03-3.53-8.03-8.03v-12.44Z"/><path class="cls-1" d="m413.58,94.34h-4.83c-.33,0-.56-.27-.56-.56v-1.66c0-.3.24-.56.56-.56h12.74c.33,0,.56.27.56.56v1.66c0,.29-.24.56-.56.56h-4.83v17.39c0,.3-.27.56-.56.56h-1.96c-.3,0-.56-.27-.56-.56v-17.39Z"/><path class="cls-1" d="m425.25,92.11c0-.3.27-.56.56-.56h1.96c.3,0,.56.27.56.56v19.61c0,.3-.27.56-.56.56h-1.96c-.3,0-.56-.27-.56-.56v-19.61Z"/><path class="cls-1" d="m442.02,91.25c5.93,0,10.67,4.77,10.67,10.69s-4.74,10.64-10.67,10.64-10.64-4.71-10.64-10.64,4.71-10.69,10.64-10.69Zm0,18.37c4.24,0,7.7-3.44,7.7-7.67s-3.47-7.73-7.7-7.73-7.67,3.53-7.67,7.73,3.47,7.67,7.67,7.67Z"/><path class="cls-1" d="m454.55,91.79c0-.29.27-.53.56-.53h.74l12.86,14.87h.03v-14.01c0-.3.24-.56.56-.56h1.9c.3,0,.56.27.56.56v19.94c0,.3-.27.53-.56.53h-.77l-12.86-15.29h-.03v14.43c0,.3-.24.56-.56.56h-1.87c-.3,0-.56-.27-.56-.56v-19.94Z"/><path class="cls-1" d="m475.57,109.3c.27-.39.5-.83.77-1.21.27-.39.68-.5,1.01-.24.18.15,2.46,2.04,4.74,2.04,2.04,0,3.35-1.24,3.35-2.76,0-1.78-1.54-2.9-4.47-4.12-3.02-1.28-5.39-2.84-5.39-6.28,0-2.31,1.78-5.48,6.49-5.48,2.96,0,5.19,1.54,5.48,1.75.24.15.47.56.18,1.01-.24.35-.5.77-.74,1.13-.24.39-.62.56-1.04.3-.21-.12-2.28-1.48-4-1.48-2.49,0-3.35,1.57-3.35,2.67,0,1.69,1.3,2.72,3.76,3.73,3.44,1.39,6.37,3.02,6.37,6.64,0,3.08-2.76,5.6-6.61,5.6-3.62,0-5.9-1.9-6.37-2.34-.27-.24-.47-.45-.18-.95Z"/></g></g><g><path class="cls-2" d="m100.67,70.76v19.63H15.12c-8.35,0-15.12-6.77-15.12-15.12V15.12C0,6.77,6.77,0,15.12,0h65.77c10.78,0,19.54,8.69,19.63,19.44v9.82h-19.63v-9.65H19.63v51.15h81.04Z"/><path class="cls-1" d="m35.34,54.77v-19.63h85.55c8.35,0,15.12,6.77,15.12,15.12v60.15c0,8.35-6.77,15.12-15.12,15.12H55.12c-10.78,0-19.54-8.69-19.63-19.44v-9.82h19.63v9.65h61.26v-51.15H35.34Z"/></g></svg>