<svg id="Layer_1" data-name="Layer 1" xmlns="http://www.w3.org/2000/svg" viewBox="0 0 718.69 68.92"><defs><style>.cls-1{fill:#ff4906;}.cls-2{fill:none;}.cls-3{fill:#0486d3;}</style></defs><rect class="cls-1" y="1.15" width="26.23" height="66.38" rx="4.3"/><rect class="cls-1" x="29.27" y="34.34" width="26.23" height="33.19" rx="4.3"/><rect class="cls-1" x="58.24" y="1.15" width="26.23" height="66.38" rx="4.3"/><path class="cls-2" d="M117.59,21.51H104.65a1.43,1.43,0,0,0-1.4,1.45v9.86a1.43,1.43,0,0,0,1.4,1.46h12.94A1.42,1.42,0,0,0,119,32.82V23A1.42,1.42,0,0,0,117.59,21.51Z" transform="translate(-7.85 -9.6)"/><path class="cls-3" d="M128.14,10.75H99.62a4.43,4.43,0,0,0-4.41,4.44v23.4A4.43,4.43,0,0,0,99.62,43h28.52a4.42,4.42,0,0,0,4.4-4.43V15.19A4.42,4.42,0,0,0,128.14,10.75ZM119,32.82a1.42,1.42,0,0,1-1.39,1.46H104.65a1.43,1.43,0,0,1-1.4-1.46V23a1.43,1.43,0,0,1,1.4-1.45h12.94A1.42,1.42,0,0,1,119,23Z" transform="translate(-7.85 -9.6)"/><path class="cls-2" d="M117.59,53.45H104.65a1.43,1.43,0,0,0-1.4,1.45v9.87a1.43,1.43,0,0,0,1.4,1.45h12.94A1.42,1.42,0,0,0,119,64.77V54.9A1.42,1.42,0,0,0,117.59,53.45Z" transform="translate(-7.85 -9.6)"/><path class="cls-3" d="M128.14,44.71H99.62a4.42,4.42,0,0,0-4.41,4.43v23.4A4.42,4.42,0,0,0,99.62,77h28.52a4.41,4.41,0,0,0,4.4-4.43V49.14A4.41,4.41,0,0,0,128.14,44.71ZM119,64.77a1.42,1.42,0,0,1-1.39,1.45H104.65a1.43,1.43,0,0,1-1.4-1.45V54.9a1.43,1.43,0,0,1,1.4-1.45h12.94A1.42,1.42,0,0,1,119,54.9Z" transform="translate(-7.85 -9.6)"/><polygon class="cls-1" points="215.71 0 204.68 41.25 191.05 0 176.35 0 162.86 41.39 151.68 0 132.6 0 152.56 67.03 152.67 67.39 170.99 67.39 183.73 30.36 196.26 67.39 214.59 67.39 234.79 0 215.71 0"/><polygon class="cls-1" points="342.58 13.66 342.5 44.75 318.31 13.66 303.68 13.66 303.68 67.2 318.13 67.2 318.47 36.04 342.6 67.01 342.75 67.2 357.12 67.2 357.48 13.66 342.58 13.66"/><polygon class="cls-1" points="452.83 25.58 452.83 13.66 421.99 13.66 421.99 67.2 452.83 67.2 452.83 54.61 436.49 54.61 436.49 45.73 451.69 45.73 451.69 34.1 436.49 34.1 436.67 25.58 452.83 25.58"/><path class="cls-2" d="M492.22,45.56A6.35,6.35,0,0,0,494.65,41a5.74,5.74,0,0,0-1.71-4.15c-1.73-1.64-4.59-2.29-8.5-1.91V47.17C485.72,47.3,489.62,47.52,492.22,45.56Z" transform="translate(-7.85 -9.6)"/><path class="cls-1" d="M498.21,55.26c2.89-.37,11.21-2.51,11.7-15.23,0-.14.61-14.15-14.57-16.77H469.76V76.8h14.49V57.69L496.4,76.8H515ZM484.44,35c3.91-.38,6.77.27,8.5,1.91A5.74,5.74,0,0,1,494.65,41a6.35,6.35,0,0,1-2.43,4.55c-2.6,2-6.5,1.74-7.78,1.61Z" transform="translate(-7.85 -9.6)"/><path class="cls-2" d="M539.15,49.72V63c2.36.21,13.48.79,14.6-6.68a5.11,5.11,0,0,0-1.63-3.8C550.51,50.88,547,49.12,539.15,49.72Z" transform="translate(-7.85 -9.6)"/><path class="cls-2" d="M538.38,24.36V36.58c1.28.14,5.18.36,7.78-1.6a6.37,6.37,0,0,0,2.44-4.57,5.75,5.75,0,0,0-1.72-4.13C545.16,24.63,542.29,24,538.38,24.36Z" transform="translate(-7.85 -9.6)"/><path class="cls-3" d="M570.3,49.06a12.62,12.62,0,0,0-10.92-7.57A18.21,18.21,0,0,0,565,22.56c-.17-.52-4.18-12.52-13-12.13H520.69V76.8h31.87c.19,0,18.92-.81,19.3-20.44A18.23,18.23,0,0,0,570.3,49.06ZM548.6,30.41A6.37,6.37,0,0,1,546.16,35c-2.6,2-6.5,1.74-7.78,1.6V24.36c3.91-.37,6.78.27,8.5,1.92A5.75,5.75,0,0,1,548.6,30.41Zm5.15,25.87c-1.12,7.47-12.24,6.89-14.6,6.68V49.72c7.81-.6,11.36,1.16,13,2.76A5.11,5.11,0,0,1,553.75,56.28Z" transform="translate(-7.85 -9.6)"/><polygon class="cls-3" points="668.35 13.66 631.05 13.66 631.05 26.73 642.26 26.54 642.45 67.2 657.13 67.2 656.95 26.73 668.35 26.73 668.35 13.66"/><polygon class="cls-3" points="718.69 13.66 673.43 13.66 673.43 26.34 693.19 26.34 668.87 67.2 714.72 67.2 714.72 55.19 693.62 54.82 718.69 13.66"/><path class="cls-2" d="M274.32,35.82a14.45,14.45,0,1,0,14.45,14.45A14.46,14.46,0,0,0,274.32,35.82Z" transform="translate(-7.85 -9.6)"/><path class="cls-1" d="M274.11,22c-16.22,0-29.41,12.67-29.41,28.25s13.19,28.25,29.41,28.25,29.4-12.68,29.4-28.25S290.32,22,274.11,22Zm.21,42.7a14.45,14.45,0,1,1,14.45-14.45A14.46,14.46,0,0,1,274.32,64.72Z" transform="translate(-7.85 -9.6)"/><path class="cls-2" d="M403,61c2.85-2.41,4.33-6.09,4.37-10.93,0,0-.36-7.45-5.44-11.59-3-2.43-7-3.29-12-2.55V64.25C391.62,64.44,398.41,64.88,403,61Z" transform="translate(-7.85 -9.6)"/><path class="cls-1" d="M402.59,24l-3.36-.71H375.18l.18,53.54h22.86c.21,0,21-2.29,24.07-24.14C422.32,52.45,424.87,31.58,402.59,24ZM389.87,36c5-.74,9,.12,12,2.55,5.08,4.14,5.44,11.54,5.44,11.59,0,4.84-1.52,8.52-4.37,10.93-4.54,3.84-11.33,3.4-13.08,3.21Z" transform="translate(-7.85 -9.6)"/><path class="cls-2" d="M606.38,35.82a14.45,14.45,0,1,0,14.45,14.45A14.46,14.46,0,0,0,606.38,35.82Z" transform="translate(-7.85 -9.6)"/><path class="cls-3" d="M606.38,22C590.17,22,577,34.69,577,50.27s13.19,28.25,29.4,28.25,29.41-12.68,29.41-28.25S622.6,22,606.38,22Zm14.45,28.25a14.45,14.45,0,1,1-14.45-14.45A14.46,14.46,0,0,1,620.83,50.27Z" transform="translate(-7.85 -9.6)"/></svg>